<?xml version="1.0" encoding="utf-8"?>
<!-- Generator: Adobe Illustrator 28.0.0, SVG Export Plug-In . SVG Version: 6.00 Build 0)  -->
<svg version="1.1" id="图层_1" xmlns="http://www.w3.org/2000/svg" xmlns:xlink="http://www.w3.org/1999/xlink" x="0px" y="0px"
	 viewBox="0 0 595.28 595.28" style="enable-background:new 0 0 595.28 595.28;" xml:space="preserve">
<g id="_x31_xGAD1.tif">
	<g>
		<path d="M129.61,198.61c-0.62-2.81,1.56-3.35,3.08-4.23c1.73-1,3.76-1.54,5.36-2.69c6.31-4.55,10.16-10.84,12.46-18.19
			c1.63-5.21,2.56-10.46,3.06-15.94c1.06-11.5-1.41-22.05-7.81-31.42c-3.79-5.54-9.72-8.51-16.7-7.43c-2.5,0.39-5.13,1.84-7.09,3.52
			c-5.9,5.07-10.72,11.03-13.07,18.66c-1.61,5.24-3.81,10.37-4.76,15.73c-1.1,6.26-1.17,12.71-1.59,19.08
			c-0.15,2.32-0.31,4.7,0.02,6.99c0.88,6,1.68,12.06,3.17,17.92c1.96,7.72,5.15,15.06,9.22,21.91c3.07,5.16,6.48,10.16,10.11,14.95
			c3.12,4.11,6.57,8.02,10.22,11.67c3.59,3.59,7.59,6.78,11.46,10.1c2.79,2.4,5.55,4.85,8.51,7.03c5.43,4.01,10.9,7.96,16.53,11.67
			c2.75,1.81,5.87,3.1,8.9,4.46c0.62,0.28,1.77,0.05,2.32-0.39c0.37-0.3,0.43-1.56,0.11-2.07c-1.84-2.98-2.94-6.4-5.69-8.84
			c-6.02-5.32-10.22-12.08-14.58-18.71c-0.9-1.36-2-2.59-2.97-3.9c-1.66-2.22-1.91-4.85-0.59-5.79c1.56-1.1,4.95-0.17,6.29,1.89
			c2.35,3.6,4.47,7.35,6.91,10.89c1.99,2.88,4.22,5.62,6.5,8.28c1.05,1.23,2.64,2.65,4.23,1.39c1.34-1.05,1.67-2.66,1.08-4.81
			c-1.87-6.88-6.84-11.76-10.42-17.52c-2.41-3.87-4.97-7.66-7.07-11.69c-0.43-0.83,0.51-2.95,1.44-3.77
			c1.12-0.99,2.73-0.43,3.62,0.96c2.45,3.82,4.77,7.72,7.28,11.5c2.3,3.46,4.52,7.03,7.26,10.11c1.7,1.92,4.03,3.91,7.04,3.25
			c1.66-0.36,3.62-1,4.67-2.19c3.63-4.12,6.35-8.93,7.61-14.27c1.34-5.7,1.62-11.57-1.16-17.02c-1.56-3.05-3.68-5.65-7.65-5.71
			c-1.88-0.02-2.87,0.85-3.38,2.56c-0.66,2.22-2.57,3.22-4.62,2.47c-1.43-0.52-1.51-2.36-0.8-4.52c1.23-3.75,4.07-5.57,7.51-6.26
			c1.74-0.35,3.74,0.57,5.8,0.96c-1.54-4.71-3.21-9.31-4.54-14c-1.77-6.27-3.48-12.57-4.84-18.95c-1.26-5.94-1.89-12.01-3.02-17.97
			c-1.59-8.41-1.68-16.9-1.33-25.37c0.17-4.25,1.52-8.43,2.05-12.68c0.89-7.13,3.54-13.73,5.83-20.44c2.3-6.72,5.6-12.93,9.58-18.8
			c4.18-6.17,9-11.81,14.61-16.64c4.43-3.81,9.19-7.32,14.14-10.41c3.73-2.33,7.88-4.18,12.06-5.59c7.49-2.52,15.37-3.35,22.76-0.21
			c5.24,2.22,8.86,6.76,10.72,12.34c2.65,7.94,1.34,15.65-1.16,23.41c-3.53,10.96-10.66,19.31-18.96,26.72
			c-5.18,4.62-10.78,9.02-17.81,10.61c-6.6,1.49-13.29,2.34-19.61-1.19c-0.78-0.43-1.19-1.53-1.77-2.32
			c0.18-0.22,0.36-0.45,0.54-0.67c3.25,0.25,6.49,0.48,9.74,0.74c6.15,0.5,11.86-0.85,17.1-4.08c2.21-1.36,4.38-2.79,6.46-4.34
			c5.97-4.48,10.9-9.92,14.51-16.47c1.95-3.54,4.1-7.04,5.42-10.82c2.4-6.82,3.25-13.97,0.14-20.77
			c-3.12-6.83-10.96-10.22-18.89-8.53c-5.26,1.12-10.23,2.65-14.76,5.4c-3.81,2.31-7.54,4.84-11.01,7.64
			c-3.65,2.95-7.22,6.11-10.35,9.59c-4.56,5.09-8.87,10.37-12.47,16.28c-4.15,6.8-6.89,14.14-9.17,21.62
			c-1.59,5.23-2.14,10.79-3.04,16.22c-0.61,3.69-1.38,7.41-1.38,11.12c0,4.39,0.72,8.77,1.18,13.15c0.22,2.11,0.54,4.21,0.82,6.32
			c0.49,3.71,0.81,7.46,1.53,11.12c0.84,4.26,1.93,8.48,3.12,12.65c1.5,5.27,3.02,10.55,4.89,15.69c1.99,5.47,4.31,10.82,6.68,16.14
			c0.37,0.83,2.03,1.87,2.63,1.64c0.93-0.36,2.01-1.72,2.06-2.7c0.2-4.05,1.44-8.17-0.46-12.16c-0.26-0.55-0.09-1.31-0.09-1.98
			c0-7.99,0-15.99,0-23.98c0-3.16,1.16-4.77,3.35-4.65c1.72,0.1,3.31,2.38,3.24,4.91c-0.19,6.69-0.56,13.39-0.6,20.08
			c-0.01,1.95,0.71,3.95,1.33,5.86c0.5,1.55,1.82,1.83,3.03,0.87c0.99-0.79,2.11-1.83,2.42-2.97c0.82-2.96,1.55-6.01,1.71-9.05
			c0.27-5.07-0.11-10.16,0.12-15.23c0.15-3.22,0.79-6.44,1.45-9.6c0.36-1.72,1.85-2.87,3.51-2.15c0.83,0.36,1.52,2.1,1.5,3.21
			c-0.06,5.78,0.27,11.68-0.8,17.3c-0.75,3.97,0.1,7.35,0.91,10.92c0.83,3.67,4.56,6.34,9.01,5.12c5.76-1.58,10.84-4.25,14.95-8.21
			c4.5-4.34,8.68-9.39,7.88-16.4c-0.21-1.81-1.15-3.69-2.24-5.19c-1.38-1.89-3.25-2.03-5.19-0.36c-1.5,1.29-3.86,1.11-4.63-0.12
			c-0.81-1.3-0.06-3.78,1.46-4.78c4.56-3.01,9.88-2.1,13.8,2.68c0.97-3.24,1.73-6.27,2.77-9.2c2.47-6.91,4.9-13.84,7.69-20.62
			c2.16-5.26,4.56-10.48,7.37-15.42c3.77-6.62,7.64-13.26,12.21-19.34c4.34-5.77,9.27-11.22,14.63-16.06
			c5.17-4.67,11.1-8.53,16.88-12.47c7.09-4.83,15.16-7.68,23.29-10.11c4.46-1.33,9.21-1.88,13.87-2.29
			c5.75-0.52,11.59-1.06,17.31-0.64c9.18,0.68,18.18,2.69,25.82,8.29c7.14,5.24,10.01,12.6,8.68,21.22
			c-0.78,5.08-3.36,9.58-6.88,13.5c-4.74,5.28-10.25,9.53-16.8,12.13c-4.84,1.92-9.91,3.51-15.03,4.38
			c-5.95,1.02-12.08,1.6-18.11,1.45c-8.46-0.2-16.09-3.2-22.15-9.39c-1.18-1.2-2.17-2.71-2.82-4.25c-0.42-1.01-0.08-2.34-0.08-3.53
			c0.32-0.14,0.63-0.28,0.95-0.43c1.29,1.35,2.5,2.8,3.9,4.02c1.83,1.59,3.7,3.2,5.77,4.45c4.56,2.75,9.41,4.78,14.89,4.77
			c2.91,0,5.83,0.1,8.74-0.02c5.54-0.22,10.76-1.79,16.05-3.42c7.78-2.4,14.31-6.64,19.97-12.26c4.04-4.01,6.52-9,6.44-14.77
			c-0.08-5.97-3.37-10.36-8.43-13.2c-3.31-1.85-6.88-3.28-10.45-4.58c-1.95-0.71-4.12-0.91-6.21-1.1
			c-3.76-0.35-7.55-0.89-11.29-0.69c-6.3,0.35-12.62,0.78-18.72,2.79c-4.2,1.38-8.55,2.34-12.8,3.59
			c-7.02,2.06-13.18,5.81-19.24,9.79c-8.31,5.45-15.28,12.45-21.67,19.85c-4.94,5.73-8.64,12.58-12.53,19.15
			c-2.72,4.6-5.09,9.45-7.17,14.37c-2.48,5.86-4.56,11.89-6.66,17.9c-1.78,5.09-3.46,10.23-4.95,15.41
			c-0.81,2.79-1.3,5.69-1.61,8.58c-0.12,1.07,0.7,2.24,1.09,3.37c0.85-0.37,1.79-0.62,2.54-1.14c3.03-2.12,5.09-5,6.92-8.24
			c2.73-4.87,5.89-9.52,9.01-14.17c2.35-3.51,4.93-6.87,7.4-10.3c0.79-1.09,4.38-1.71,4.87-0.59c0.61,1.4,1.03,3.64,0.32,4.73
			c-2.39,3.67-5.49,6.88-8.01,10.48c-2.59,3.7-4.86,7.62-7.12,11.54c-0.31,0.53,0.04,1.8,0.52,2.33c0.51,0.56,1.64,1.06,2.32,0.88
			c3.46-0.9,6.05-3.2,8.21-5.91c2.99-3.75,5.75-7.7,8.71-11.47c2.38-3.02,4.93-5.91,7.39-8.86c1.34-1.61,3.15-1.86,4.56-0.66
			c1.39,1.18,1.12,2.89-0.14,4.39c-3.48,4.13-6.91,8.3-10.31,12.5c-3.02,3.72-6.01,7.45-6.68,12.46c-0.3,2.26,1.63,5.34,4.4,6.59
			c5.24,2.37,10.82,3.55,16.45,2.74c6.14-0.88,12.16-2.69,16.18-7.99c1.18-1.56,2.02-3.53,2.48-5.44c0.53-2.22-1.77-4.25-4.31-4.7
			c-1.24-0.22-2.54-0.97-3.41-1.87c-0.38-0.4-0.08-2.13,0.47-2.62c1.1-0.96,2.29-1.4,4.18-0.86c3.21,0.91,6.23,1.64,7.49,5.08
			c0.6,1.64,0.8,3.43,1.26,5.46c2.39-1.72,4.65-3.36,6.94-4.97c5.32-3.74,10.53-7.66,16.01-11.15c5.14-3.27,10.4-6.43,15.91-8.99
			c8.27-3.84,16.71-7.35,25.27-10.5c3.81-1.4,8.12-1.4,12.12-2.35c9.72-2.31,19.58-1.32,29.37-1.31c3.9,0,7.81,1.27,11.71,1.97
			c8.6,1.55,16.57,4.85,24.28,8.85c9.08,4.71,16.79,11.22,23.47,18.86c4.2,4.8,7.45,10.43,8.41,16.78
			c1.12,7.39-0.8,15.43-8.26,20.74c-4.74,3.37-9.75,5.17-15.3,5.54c-5.12,0.34-10.41,0.79-15.4-0.1
			c-8.97-1.6-17.31-5.13-25.03-10.21c-3.88-2.56-7.46-5.33-10.66-8.66c-5.84-6.06-8.98-13.16-8.33-21.7
			c0.06-0.78,0.36-1.59,0.75-2.27c0.74-1.29,1.66-1.29,2.27,0.1c0.38,0.87,0.57,1.85,0.69,2.8c0.79,6.15,2.77,11.72,6.77,16.64
			c4.92,6.05,11.25,10.1,18.05,13.47c4.7,2.33,9.61,4.23,14.95,4.77c3.22,0.33,6.44,1.45,9.62,1.31c3.67-0.15,7.35-1.1,10.94-2.05
			c5.53-1.47,9.59-4.9,11.96-10.13c1.8-3.98,1.48-7.89-0.11-12.01c-2.83-7.37-7.97-12.92-13.77-17.8
			c-7.63-6.42-16.24-11.37-25.77-14.58c-3.44-1.16-6.77-2.7-10.26-3.63c-3.73-1-7.57-1.76-11.41-2.12
			c-5.25-0.5-10.57-0.9-15.82-0.66c-5.41,0.25-10.81,1.16-16.16,2.08c-4.12,0.7-8.33,1.42-12.2,2.92
			c-7.02,2.72-14.02,5.64-20.65,9.19c-8.15,4.37-16.05,9.27-23.8,14.34c-4.83,3.16-9.24,6.98-13.69,10.68
			c-2.37,1.97-4.47,4.27-6.56,6.55c-0.56,0.61-0.59,1.69-0.87,2.55c1.16,0.31,2.38,1.03,3.46,0.85c4.58-0.74,8.65-2.82,12.84-4.81
			c4.97-2.35,10.49-3.56,15.76-5.29c2.61-0.85,5.22-1.7,7.79-2.66c2.99-1.11,5.67,0.77,4.9,3.79c-0.27,1.07-1.86,2.18-3.07,2.57
			c-4.97,1.6-10.08,2.8-15.05,4.42c-2.91,0.94-5.72,2.26-8.45,3.67c-0.92,0.47-1.95,1.72-1.96,2.64c-0.01,0.74,1.28,1.77,2.22,2.22
			c3.16,1.53,6.36,0.75,9.54-0.18c7.27-2.11,14.61-4,21.81-6.35c3.32-1.09,5.71-0.84,7.54,2.3c-1.08,2.21-3.07,3.1-5.23,3.66
			c-6.78,1.76-13.66,3.2-20.33,5.29c-3.79,1.18-7.2,3.73-7.6,8.09c-0.16,1.79,1.23,3.88,2.3,5.59c3.85,6.14,9.63,9.99,16.22,12.56
			c4.5,1.76,9.25,2.08,13.95,0.38c1.86-0.67,4.39-4.08,4.12-5.9c-0.14-0.95-0.8-2.04-1.57-2.62c-1.68-1.29-2.26-2.87-1.27-4.6
			c1.12-1.95,2.54-1.59,4.21-0.7c4.02,2.15,5.79,7.33,3.78,11.35c-0.62,1.23-1.23,2.47-2.03,4.1c2.85-0.29,5.35-0.77,7.83-0.74
			c8.28,0.11,16.57,0.2,24.83,0.71c4.42,0.27,8.79,1.36,13.18,2.13c5.34,0.93,10.73,1.65,15.97,2.96c5.3,1.33,10.47,3.19,15.64,4.96
			c8.78,3.01,16.51,8.08,23.93,13.43c6.77,4.88,13.34,10.23,18.25,17.2c3.47,4.92,7.41,9.58,10.27,14.83
			c2.87,5.28,4.98,11.05,6.83,16.8c1.27,3.96,1.67,8.24,2.22,12.4c0.46,3.49,1.08,7.07,0.72,10.52c-0.71,6.83-2.13,13.57-7.64,18.5
			c-3.51,3.14-7.55,4.74-12.34,5.09c-9.7,0.71-17.51-3.18-24.95-8.85c-6.49-4.95-11.17-11.24-14.75-18.34
			c-2.79-5.53-5.45-11.25-7.11-17.19c-1.46-5.22-1.38-10.76-0.37-16.32c0.66-3.68,2.05-6.84,4.04-9.77
			c0.98-1.45,2.73-2.38,4.14-3.55c0.31,0.17,0.62,0.34,0.92,0.51c-0.29,1.51-0.19,3.26-0.95,4.48c-3.87,6.2-4.94,13-4.17,20.05
			c0.36,3.3,1.42,6.63,2.72,9.71c1.98,4.7,3.97,9.51,6.81,13.69c2.8,4.12,5.73,8.23,9.94,11.38c3.62,2.72,7.13,5.53,11.29,7.24
			c2.81,1.16,5.88,2.26,8.85,2.32c7.42,0.14,14.83-5.77,16.18-12.89c1.46-7.7,0.94-15.3-1.12-23.02
			c-2.06-7.75-5.47-14.81-9.16-21.73c-4.78-8.97-11.18-16.87-18.95-23.47c-4.4-3.73-9.13-7.13-14-10.22
			c-4.18-2.65-8.64-4.97-13.21-6.85c-5.42-2.23-11.02-4.17-16.69-5.63c-5.47-1.41-11.11-2.21-16.71-2.97
			c-5.17-0.71-10.38-1.19-15.59-1.47c-7.43-0.4-14.88-0.73-22.32-0.67c-4.46,0.04-8.93,0.77-13.35,1.49
			c-1.03,0.17-1.88,1.51-2.81,2.31c1.28,1.1,2.43,2.44,3.88,3.26c4.56,2.59,9.83,2.5,14.76,3.72c3.98,0.99,7.81,2.54,11.71,3.85
			c2.96,1,5.97,1.89,8.87,3.07c2.7,1.09,3.57,2.73,2.79,4.46c-0.65,1.45-3.35,2.39-5.25,1.72c-6.53-2.3-13-4.78-19.59-6.89
			c-1.94-0.62-4.23-0.51-6.3-0.26c-1.49,0.18-1.97,1.62-0.96,2.86c1.26,1.56,2.51,3.48,4.22,4.25c5.45,2.44,11.1,4.43,16.68,6.57
			c3.6,1.38,7.21,2.73,10.81,4.11c0.45,0.17,1.12,0.34,1.26,0.68c0.56,1.38,1.23,2.83,1.23,4.25c0,0.41-2.14,1.11-3.31,1.13
			c-1.24,0.02-2.54-0.49-3.73-0.96c-6.16-2.43-12.21-5.14-18.46-7.31c-3.47-1.2-7.35-1.45-10.37,1.31c-1.21,1.11-2.33,3-2.4,4.58
			c-0.44,9.95,2.5,18.87,9.5,26.09c2.79,2.88,6.4,4.47,10.71,3.96c3.2-0.38,4.59-2.38,3.8-5.45c-0.27-1.05-0.04-2.56,0.59-3.41
			c0.51-0.69,2.28-1.26,2.88-0.89c1.02,0.62,2.1,1.99,2.17,3.11c0.15,2.25-0.09,4.61-0.66,6.79c-0.64,2.46-2.68,3.73-5.11,4.36
			c-0.42,0.11-0.76,0.56-1.3,0.98c2.79,2.06,5.46,4,8.11,5.98c3.97,2.98,7.87,6.07,11.9,8.98c8.31,6,15.14,13.58,22.18,20.9
			c5.58,5.81,10.46,12.23,14.64,19.23c4.86,8.15,8.43,16.81,11.32,25.75c1.55,4.81,2.55,9.9,3,14.94
			c0.67,7.47,0.98,15.02,0.77,22.51c-0.12,4.39-1.26,8.83-2.47,13.1c-1.53,5.41-3.38,10.76-5.5,15.97c-1.21,2.97-3,5.79-4.95,8.36
			c-2.24,2.94-4.81,5.68-7.49,8.24c-3.58,3.41-7.69,5.73-12.95,5.43c-3.83-0.22-7.57,0.09-11.26-1.87
			c-5.05-2.68-8.7-6.61-11.43-11.36c-3.33-5.8-5.57-12.05-5.83-18.88c-0.11-2.77-0.91-5.55-0.7-8.27
			c0.46-5.89,0.59-11.86,2.71-17.51c1.58-4.22,2.66-8.66,4.62-12.69c3.37-6.94,8.72-12.04,16.21-14.41
			c1.69-0.53,3.68-0.08,5.54-0.08c0.16,0.27,0.31,0.54,0.47,0.81c-1.16,0.9-2.25,1.91-3.5,2.66c-2.21,1.33-4.78,2.16-6.72,3.78
			c-6.74,5.63-10.76,12.94-12.75,21.51c-1.37,5.92-2.53,11.84-2.16,17.92c0.51,8.27,2.35,16.26,6.72,23.39
			c3.33,5.43,8.38,8.82,14.7,9.74c3.37,0.49,6.6-0.82,9.38-2.82c8.09-5.82,12.79-14.02,15.64-23.31c1.58-5.15,2.51-10.49,3.74-15.75
			c1.8-7.71,1.83-15.59,1.28-23.36c-0.39-5.58-1.87-11.16-3.49-16.55c-1.86-6.18-4.06-12.31-6.77-18.16
			c-2.17-4.7-5.2-9.02-8.03-13.38c-6.19-9.52-14.58-17.09-22.75-24.76c-5.61-5.27-12.09-9.64-18.38-14.13
			c-5.35-3.82-10.92-7.35-16.54-10.78c-1.32-0.8-3.14-2.49-4.83-0.75c-1.6,1.65,0.34,3.11,1.02,4.37c1.49,2.77,3.14,5.35,5.52,7.71
			c4.25,4.2,7.53,9.39,11.18,14.18c1.67,2.2,3.38,4.38,4.86,6.71c0.79,1.25,1.35,2.76,1.56,4.22c0.12,0.85-0.52,2.5-1.06,2.61
			c-1.14,0.24-2.98,0.16-3.6-0.58c-2.52-2.97-4.64-6.29-7.01-9.4c-3.08-4.02-6.19-8.02-9.46-11.88c-0.59-0.7-2.1-1.1-3.01-0.88
			c-0.58,0.14-1.03,1.63-1.19,2.58c-0.74,4.5,2,7.76,4.23,11.14c4.03,6.09,8.23,12.08,12.2,18.21c0.7,1.08,0.91,2.63,0.9,3.96
			c-0.01,0.81-0.76,2.12-1.4,2.28c-0.83,0.2-2.28-0.22-2.79-0.89c-2.32-3.04-4.46-6.21-6.55-9.41c-2.99-4.56-5.21-9.72-9.65-13.15
			c-1.49-1.15-3.36-2.01-5.19-2.5c-3.9-1.04-5.74,2.23-7.54,4.56c-3.04,3.93-5.16,8.56-5.99,13.46c-1.04,6.21-0.97,12.42,2.92,17.98
			c2.45,3.5,8.53,4.21,9.58,0.74c1.05-3.48,3.13-2.59,5.32-2.55c1.11,3.77-0.27,6.59-3.12,8.74c-3.08,2.33-6.53,1.42-10.11,0.89
			c1.16,3.44,2.44,6.93,3.52,10.48c1.7,5.54,3.43,11.08,4.85,16.7c1.42,5.63,2.59,11.33,3.63,17.05c0.53,2.89,0.52,5.89,0.74,8.84
			c0.49,6.54,1.39,13.08,1.34,19.62c-0.04,5.25-0.92,10.55-2.02,15.71c-1.38,6.53-3.07,13.02-5.16,19.36
			c-2.01,6.06-4.83,11.79-8.21,17.31c-4.64,7.59-10.26,14.3-16.8,20.19c-6.48,5.84-13.42,11.01-21.79,14.17
			c-4.83,1.83-9.59,3.09-14.75,3.56c-6.65,0.61-12.57-0.67-17.4-5.22c-3.48-3.28-5.73-7.49-6.27-12.4
			c-0.28-2.51-1.07-5.11-0.68-7.52c0.79-4.91,1.85-9.85,3.47-14.54c3.39-9.78,10.11-17.35,17.63-24.13
			c5.37-4.84,11.13-9.45,18.38-11.09c6.49-1.47,13.16-2.31,19.4,1.21c0.8,0.45,1.28,1.48,1.9,2.25c-0.18,0.3-0.37,0.6-0.55,0.91
			c-1.9-0.27-3.79-0.66-5.7-0.8c-8.17-0.59-16.11,0.03-22.99,5.13c-3.61,2.68-7.42,5.23-10.51,8.44
			c-6.6,6.86-11.86,14.59-14.53,23.99c-1.79,6.29-2.25,12.45,0.21,18.47c1.69,4.13,4.82,7.2,9.32,8.55
			c6.56,1.97,12.7,0.26,18.76-2.12c6.52-2.55,12.17-6.51,17.35-11.13c3.7-3.3,7.57-6.49,10.81-10.21
			c4.49-5.14,8.57-10.61,12.06-16.56c3.36-5.73,5.69-11.84,7.72-18.04c1.57-4.8,1.83-10.01,3.1-14.93
			c1.85-7.16,1.55-14.42,1.3-21.64c-0.18-5.26-1.21-10.51-2.01-15.74c-0.61-3.99-1.27-7.99-2.24-11.9
			c-1.57-6.33-3.13-12.69-5.22-18.87c-2.32-6.86-5.22-13.52-7.88-20.26c-0.15-0.38-0.28-0.85-0.58-1.06
			c-0.95-0.7-1.97-1.31-2.97-1.95c-0.49,1.04-1.09,2.04-1.46,3.12c-1.7,5.06-0.46,9.99,0.69,14.95c0.29,1.27,0.08,2.65,0.08,3.99
			c0.01,5.33,0.08,10.66-0.03,15.99c-0.04,1.93-0.24,3.97-0.97,5.71c-0.32,0.76-2.12,1.02-3.3,1.29c-1.76,0.4-2.3-1.25-2.29-2.23
			c0.04-5.02,0.43-10.03,0.56-15.05c0.05-2.03-0.23-4.07-0.38-6.1c-0.07-0.98-0.33-1.97-0.26-2.93c0.18-2.45-0.77-4.29-2.77-5.74
			c-3.75,2.21-4.95,5.72-5.1,9.73c-0.3,8.42-0.47,16.84-0.85,25.26c-0.09,2.1-0.61,4.36-3.18,4.9c-0.73,0.15-2.2-0.25-2.31-0.67
			c-0.44-1.65-0.49-3.41-0.63-5.14c-0.03-0.39,0.22-0.79,0.24-1.2c0.28-6.92,0.82-13.85,0.7-20.76c-0.09-5.15-4.41-10.19-9.11-9.04
			c-3.26,0.79-6.46,2.18-9.4,3.82c-2.53,1.41-4.75,3.45-6.94,5.39c-4.15,3.68-6.54,8.42-7.8,13.76c-0.34,1.42,1.9,7.16,3.09,8
			c1.72,1.21,3.41,1.08,4.85-0.33c1.61-1.58,3.51-1.14,4.66,0.47c1.1,1.54,0.43,3.29-1.66,4.45c-4.74,2.64-8.45,2.13-12.46-1.69
			c-0.46-0.44-1.01-0.78-1.67-1.28c-1.91,5.69-3.8,11.14-5.57,16.63c-2.94,9.12-6.74,17.87-11.28,26.29
			c-3.4,6.3-6.96,12.52-10.74,18.6c-1.84,2.96-4.31,5.54-6.57,8.23c-1.85,2.2-3.63,4.5-5.74,6.43
			c-6.63,6.08-13.57,11.76-21.25,16.51c-6.58,4.07-13.48,7.42-20.89,9.64c-3.69,1.11-7.52,1.74-11.27,2.64
			c-7.46,1.79-15.08,1.74-22.63,1.33c-6.44-0.35-12.82-1.7-18.82-4.28c-4.44-1.91-8.76-4.14-11.81-8.02
			c-3.94-5.01-5.34-10.55-4.33-17.11c1.23-7.94,5.92-13.42,11.42-18.37c5.24-4.71,11.61-7.58,18.34-9.78
			c8.92-2.91,18.05-4.09,27.33-3.48c8.89,0.58,16.97,3.46,22.8,10.72c1.09,1.35,1.79,3.05,2.49,4.67c0.18,0.42-0.14,1.26-0.5,1.66
			c-0.24,0.26-1.14,0.27-1.45,0.03c-0.92-0.72-1.71-1.6-2.51-2.45c-3.35-3.54-7.25-6.22-11.77-8.1c-6.87-2.86-14.13-2.54-21.19-1.93
			c-5.37,0.46-10.71,2.29-15.83,4.15c-3.92,1.42-7.58,3.68-11.19,5.84c-5.88,3.52-10.33,8.64-12.2,15.12
			c-2.09,7.23,0.37,14.05,7.71,18.34c4.35,2.54,8.82,4.47,13.82,5.01c5.2,0.57,10.46,1.67,15.61,1.31
			c6.83-0.48,13.58-2.17,20.37-3.31c8.29-1.39,15.74-4.97,22.96-9.01c3.74-2.09,7.31-4.59,10.62-7.31
			c4.77-3.9,9.47-7.94,13.77-12.34c4.67-4.78,8.9-10,12.04-16c2.64-5.04,5.8-9.84,8.08-15.03c3.64-8.27,6.96-16.69,10.02-25.19
			c2.23-6.2,3.95-12.6,5.64-18.97c0.52-1.95,0.33-4.14,0.13-6.19c-0.1-1.09-0.89-2.08-2.24-0.84c-2.25,2.07-4.55,4.08-6.77,6.18
			c-0.29,0.27-0.16,0.96-0.31,1.42c-1.62,4.95-4.78,8.98-7.79,13.11c-2.5,3.42-4.94,6.87-7.49,10.25c-0.84,1.12-1.8,2.25-2.94,3.02
			c-0.77,0.52-2.32,0.93-2.89,0.52c-1.18-0.86-3.13-1.81-1.77-3.95c1.26-1.99,2.42-4.04,3.82-5.92c3.21-4.31,6.57-8.51,9.79-12.82
			c0.77-1.03,1.52-2.22,1.81-3.44c0.24-1.01,0.16-2.63-0.47-3.17c-0.75-0.64-2.42-0.85-3.38-0.46c-3.18,1.28-5.63,3.56-7.59,6.41
			c-1.62,2.35-3.41,4.58-5.2,6.8c-3.27,4.09-6.64,8.09-9.86,12.21c-1.36,1.74-3.14,1.41-4.77,1.13c-1.36-0.23-1.77-1.51-1.05-2.74
			c1.19-2.03,2.37-4.11,3.83-5.94c2.05-2.56,4.35-4.94,6.58-7.35c3.01-3.27,5.51-6.87,7.25-10.97c1.39-3.26,0.13-7.22-3.08-8.58
			c-2.94-1.25-6.11-1.99-9.22-2.82c-1.55-0.42-3.19-0.79-4.78-0.75c-5.09,0.1-10,1.29-14.46,3.68c-4.04,2.17-7.37,5.15-7.4,10.32
			c-0.01,2.24,1.78,4.17,3.97,4.09c1.77-0.07,3.24,0.24,3.57,2.16c0.16,0.89-0.09,2.54-0.59,2.73c-1.31,0.5-2.9,0.69-4.29,0.46
			c-1.62-0.27-3.32-0.87-4.67-1.78c-3.1-2.09-3.43-5.4-3.08-9.21c-2.49,1.79-4.68,3.39-6.89,4.95c-5.2,3.66-10.24,7.56-15.65,10.87
			c-6.79,4.15-13.68,8.23-20.89,11.57c-7.46,3.46-15.27,6.21-23.07,8.84c-3.78,1.27-7.88,1.76-11.87,2.23
			c-5.85,0.68-11.74,1.24-17.62,1.45c-8.19,0.28-16.24-0.76-24.26-2.71c-6.97-1.69-13.65-4.07-19.92-7.38
			c-5.15-2.72-9.91-6.21-14.7-9.57c-5.79-4.06-10.49-9.3-14.31-15.17c-2.73-4.2-4.58-8.81-5.12-14.06
			c-0.74-7.21,1.6-12.98,6.7-17.63c3.9-3.55,8.7-5.78,14-6.3c5.08-0.49,10.25-1,15.3-0.59c4.36,0.35,8.72,1.72,12.91,3.12
			c10.74,3.58,20.08,9.52,27.53,18.08c3.09,3.55,4.96,7.87,6.17,12.56c0.89,3.43,0.89,6.53-0.44,9.74c-0.82,0-1.61,0-2.47,0
			c-0.7-5.53-1.64-10.83-4.45-15.66c-2.12-3.64-4.71-6.64-7.95-9.43c-4.81-4.15-10.25-7.05-15.91-9.51
			c-4.25-1.84-8.9-2.91-13.47-3.8c-3.52-0.69-7.22-0.92-10.8-0.71c-6.28,0.36-12.05,2.12-16.78,6.8
			c-4.57,4.52-5.34,11.62-3.08,17.25c2.81,7.01,7.57,12.5,13.11,17.34c7.06,6.16,15.34,10.52,23.83,14.24
			c5.96,2.6,12.36,4.22,18.64,6.02c2.24,0.64,4.69,0.61,7.05,0.78c4.1,0.3,8.23,0.9,12.3,0.66c5.67-0.34,11.32-1.2,16.93-2.12
			c4.7-0.77,9.37-1.81,13.97-3.02c2.64-0.69,5.22-1.77,7.66-3.01c7.25-3.66,14.5-7.31,21.57-11.29c5.36-3.02,10.59-6.34,15.62-9.9
			c4.92-3.49,9.51-7.45,14.24-11.2c1.28-1.02,2.72-1.9,3.79-3.11c1-1.12,1.61-2.59,2.39-3.92c-1.14-1.63-2.36-2.19-4.28-1.35
			c-1.38,0.6-3,0.64-4.47,1.06c-1.52,0.43-3.17,0.76-4.46,1.6c-5.12,3.33-10.97,4.65-16.67,6.41c-3.53,1.09-7.08,2.14-10.61,3.24
			c-1.62,0.5-3.32,1.06-4.34-0.84c-0.9-1.68,0.01-4.18,1.85-4.84c3.63-1.3,7.39-2.25,11.04-3.5c4.79-1.64,10.05-2.23,14.07-5.67
			c2.11-1.81,1.48-3.43-1.13-4.47c-4.18-1.67-8.01-0.03-11.85,1.01c-7.15,1.94-14.2,4.25-21.35,6.19c-1.19,0.32-2.8-0.2-4-0.77
			c-1.76-0.84-1.75-3.48,0.06-4.16c3.24-1.21,6.58-2.19,9.95-3c6.66-1.6,13.48-2.7,19.25-6.81c3.11-2.22,2.98-7.33,0.28-11
			c-3.9-5.3-8.81-9.19-14.79-11.75c-4.83-2.06-9.84-3.66-14.92-0.93c-1.69,0.91-3.32,2.37-4.33,3.99c-1,1.6-0.88,3.56,1.4,4.62
			c2.16,1,1.66,3.24,1.09,4.57c-0.54,1.26-2.21,1.75-4.01,0.72c-4.27-2.46-6.66-8.89-2.54-14.24c0.19-0.25,0.39-0.5,0.79-1.01
			c-0.94-0.07-1.63-0.16-2.33-0.16c-6.74-0.01-13.5,0.18-20.23-0.06c-5.39-0.19-10.76-0.81-16.12-1.42
			c-5.16-0.59-10.34-1.17-15.43-2.19c-8.39-1.69-16.61-3.97-24.6-7.21c-8.06-3.27-15.2-8.04-22.32-12.83
			c-3.45-2.32-6.51-5.25-9.59-8.07c-2.82-2.58-5.74-5.15-8.09-8.14c-3.4-4.33-6.36-9.02-9.44-13.59
			c-3.88-5.76-6.27-12.24-8.32-18.77c-1.35-4.29-1.76-8.89-2.46-13.37c-0.41-2.65-1.06-5.41-0.73-8.01
			c0.63-4.93,0.89-9.99,3.41-14.56c2.91-5.3,7.08-8.93,12.87-10.56c5.54-1.56,11.05-0.97,16.38,1.03
			c6.73,2.53,12.72,6.39,17.47,11.73c3.56,3.99,6.85,8.4,9.36,13.1c2.99,5.58,5.46,11.54,7.32,17.6c1.67,5.42,1.24,11.15,0.39,16.84
			c-0.7,4.69-2.65,8.49-6.13,11.58c-0.65,0.58-1.57,0.85-2.36,1.26c-1.62-3.26,0.79-5.09,1.81-7.12c3.22-6.41,3.2-12.99,2.17-19.85
			c-1.41-9.4-5.86-17.48-11.44-24.73c-5.99-7.79-13.53-14.09-23.36-16.94c-7.7-2.23-17.48,3.33-19.89,11.16
			c-1.53,4.99-1.98,10.13-1.22,15.1c0.89,5.84,2.37,11.75,4.63,17.2c2.99,7.18,6.43,14.32,10.71,20.79
			c3.96,5.99,8.79,11.61,14.1,16.43c8.85,8.04,19.33,13.86,30.25,18.65c4.9,2.15,10.25,3.39,15.49,4.6
			c5.51,1.27,11.16,1.92,16.71,3.02c6.49,1.29,13.04,1.44,19.62,1.47c3.52,0.02,7.04,0.69,10.56,0.66c4.94-0.04,9.88-0.33,14.8-0.75
			c2.15-0.18,4.27-0.89,6.36-1.5c0.52-0.15,1.28-0.93,1.22-1.3c-0.13-0.81-0.52-1.94-1.15-2.25c-2.61-1.3-5.24-2.9-8.04-3.39
			c-10.73-1.88-20.87-5.57-30.98-9.4c-1.69-0.64-2.17-1.72-1.83-3.25c0.33-1.48,1.16-2.22,2.95-2.24c4.26-0.05,7.78,2.12,11.6,3.38
			c5.13,1.7,9.99,4.34,15.65,4c2.38-0.14,2.98-0.98,1.93-3.08c-1.64-3.28-4.56-5.08-7.81-6.31c-7.76-2.95-15.6-5.7-23.36-8.67
			c-2.44-0.94-3.88-2.77-3.06-5.67c3.49-1.13,6.55,0.38,9.62,1.67c4.63,1.94,9.16,4.16,13.9,5.8c3.65,1.26,7.63,1.65,11.34,0.14
			c2.35-0.96,3.43-3.46,3.52-5.79c0.39-10.08-2.64-18.98-9.93-26.21c-3.29-3.26-7.28-4.14-11.7-3.42c-1.72,0.28-3.14,3.2-2.78,4.84
			c0.28,1.25,0.4,2.79-0.13,3.85c-0.3,0.6-2.32,0.98-3.07,0.57c-0.98-0.55-1.99-1.92-2.1-3.03c-0.64-6.33,0.98-9.89,7.49-11.73
			c-5.02-3.73-10.19-7.38-15.13-11.32c-4.99-3.98-9.91-8.08-14.58-12.43c-5.18-4.81-10.34-9.7-14.99-15.02
			c-6.32-7.24-12.24-14.9-16.05-23.83c-2.94-6.89-5.6-13.92-7.9-21.04c-1.8-5.55-3.09-11.27-3.04-17.23
			c0.03-3.59-0.9-7.21-0.65-10.77c0.35-5.16,1.16-10.32,2.17-15.4c0.94-4.73,1.96-9.52,3.71-13.99c1.91-4.88,4.57-9.5,7.17-14.07
			c1.32-2.32,3.13-4.39,4.9-6.41c3.93-4.49,8.86-7.54,14.72-8.56c4.6-0.8,9.13,0.28,13.23,2.53c6.05,3.31,10.03,8.57,12.6,14.8
			c1.49,3.61,2.86,7.44,3.27,11.28c0.72,6.71,1.22,13.55,0.73,20.25c-0.39,5.32-2.26,10.57-3.77,15.76
			c-1.98,6.84-6.26,12.25-11.62,16.75C138.79,197.15,134.7,199.09,129.61,198.61z M408.84,264.9c-0.02-0.06-0.05-0.31-0.16-0.51
			c-0.12-0.21-0.28-0.43-0.48-0.57c-3.85-2.59-5.96-6.12-5.77-10.85c0.06-1.45-0.49-2.24-1.89-2.76c-3.82-1.42-6.84-3.81-8.23-7.8
			c-0.47-1.34-0.6-2.8-0.99-4.74c0.22,0.1-0.2-0.18-0.66-0.29c-0.55-0.14-1.18-0.03-1.71-0.21c-8.82-3.02-15.9-8.47-21.09-16.11
			c-1.51-2.22-2.42-5.33-2.34-7.99c0.07-2.6,1.74-5.16,2.69-7.69c-1.32-0.07-3.1,0.07-4.75-0.32c-1.63-0.38-3.2-1.18-4.66-2.03
			c-1.04-0.6-2.57-1.52-2.66-2.41c-0.32-3.38-2.58-2.16-4.04-1.76c-5.86,1.57-10.22,0.08-12.94-4.24
			c-5.2,0.66-10.07,1.69-14.96,1.78c-4.44,0.08-9.07-0.29-13.31-1.51c-3.66-1.05-7.95-2.33-9.12-6.94
			c-0.51-2.02-0.49-4.17-0.73-6.44c-4.89,3.25-9.97,4.86-15.62,2.1c-0.55,0.64-1.14,1.14-1.5,1.77c-2.14,3.72-8.32,6.29-11.86,5.13
			c-2.11-0.69-2.61,0.39-3.48,1.53c-0.29,0.39-0.47,0.87-0.78,1.23c-5.25,6.06-11.51,10.72-19.18,13.24
			c-4.01,1.32-8.21,2.02-12.05-0.54c-1.56-1.04-2.78-2.58-4.23-3.97c-2.33,4.59-4.24,9.88-10.69,10.03
			c-0.41,1.63-0.93,3.09-1.14,4.59c-0.72,5.24-3.5,8.37-8.54,9.31c-0.05,0.53-0.18,1.09-0.16,1.66c0.18,5.19-0.39,10.26-2.26,15.13
			c-2.22,5.8-5.17,11.14-10.06,15.16c-0.77,0.64-1.89,1.13-2.87,1.19c-2.59,0.16-5.2,0.06-8.08,0.06
			c0.42,4.75,2.62,10.54-2.98,13.96c1.24,3,2.78,5.79,3.53,8.79c0.81,3.24-0.48,6.24-2.68,8.3c1.57,2.55,3.08,4.68,4.24,7
			c1.19,2.38,2.1,4.91,2.99,7.42c1.59,4.5,2.49,9.17,2.07,13.92c-0.31,3.45-0.8,7.11-4.18,9.23c-1.65,1.04-3.48,1.8-5.3,2.72
			c4.85,3.31,7.8,9.1,6.26,13.64c10.5,3.96,11.24,9.2,10.66,13c0.66,0.31,1.3,0.72,2,0.93c8.85,2.64,16,7.66,21.35,15.22
			c2.51,3.54,4.5,7.25,2.74,11.74c-0.67,1.71-1.66,3.29-2.55,5.01c5.54,0.35,11.29,0.45,13.18,7.44c3.49-1.21,6.86-2.18,10.48-0.76
			c2.16,0.85,4.48,1.23,5.23,3.95c0.08,0.3,1.09,0.58,1.6,0.49c3.81-0.69,7.58-1.73,11.42-2.16c5.08-0.57,10.15,0.06,15.08,1.43
			c4.63,1.29,8.84,3.25,9.94,8.64c0.32,1.56,0.44,3.16,0.68,5c4.79-3.1,9.6-5.28,14.88-2.32c2.41-1.93,4.58-4.19,7.2-5.63
			c2.69-1.48,5.82-2.32,8.78-0.03c2-2.55,3.65-5.15,5.78-7.25c4.84-4.77,10.7-7.97,17.14-10.05c5.3-1.71,10.22-1.57,13.91,3.46
			c0.41,0.56,1.05,0.95,1.42,1.28c2.45-4.97,4.3-10.32,11.21-10.11c0.28-9.44,3.83-13.83,8.53-13.82c0.38-3.23,0.72-6.47,1.15-9.69
			c0.24-1.77,0.3-3.66,1.01-5.24c1.94-4.33,3.83-8.77,6.43-12.7c1.71-2.59,3.82-5.17,7.62-5.77c2.79-0.44,5.21,0.65,7.82,0.6
			c-1.82-6.81-0.9-12.88,3.17-14.63c-3.79-5.48-6.19-11.13-1.52-17.32c-1.37-2.12-3.09-4.17-4.12-6.52
			c-1.51-3.45-2.79-7.06-3.69-10.72c-0.83-3.37-1.47-6.92-1.37-10.36c0.1-3.32,0.39-7,3.73-9.15
			C405.05,266.95,406.84,266.03,408.84,264.9z"/>
	</g>
</g>
</svg>
